<svg width="113" height="15" viewBox="0 0 113 15" fill="none" xmlns="http://www.w3.org/2000/svg">
<path d="M4.944 12.256C4.31467 12.256 3.728 12.1707 3.184 12C2.65067 11.8187 2.18133 11.552 1.776 11.2C1.38133 10.848 1.06667 10.4053 0.832 9.872C0.608 9.33867 0.496 8.71467 0.496 8C0.496 7.296 0.608 6.69333 0.832 6.192C1.06667 5.68 1.37067 5.264 1.744 4.944C2.11733 4.61333 2.544 4.37333 3.024 4.224C3.504 4.064 3.99467 3.984 4.496 3.984C5.06133 3.984 5.57333 4.06933 6.032 4.24C6.50133 4.41067 6.90133 4.64533 7.232 4.944C7.57333 5.24267 7.83467 5.6 8.016 6.016C8.208 6.432 8.304 6.88533 8.304 7.376C8.304 7.73867 8.20267 8.016 8 8.208C7.79733 8.4 7.51467 8.52267 7.152 8.576L3.2 9.168C3.31733 9.52 3.55733 9.78667 3.92 9.968C4.28267 10.1387 4.69867 10.224 5.168 10.224C5.60533 10.224 6.016 10.1707 6.4 10.064C6.79467 9.94667 7.11467 9.81333 7.36 9.664C7.53067 9.77067 7.67467 9.92 7.792 10.112C7.90933 10.304 7.968 10.5067 7.968 10.72C7.968 11.2 7.744 11.5573 7.296 11.792C6.95467 11.9733 6.57067 12.096 6.144 12.16C5.71733 12.224 5.31733 12.256 4.944 12.256ZM4.496 5.968C4.24 5.968 4.016 6.01067 3.824 6.096C3.64267 6.18133 3.49333 6.29333 3.376 6.432C3.25867 6.56 3.168 6.70933 3.104 6.88C3.05067 7.04 3.01867 7.20533 3.008 7.376L5.744 6.928C5.712 6.71467 5.59467 6.50133 5.392 6.288C5.18933 6.07467 4.89067 5.968 4.496 5.968ZM12.3813 11.984C12.2639 12.0053 12.0879 12.032 11.8533 12.064C11.6293 12.1067 11.3999 12.128 11.1653 12.128C10.9306 12.128 10.7173 12.112 10.5253 12.08C10.3439 12.048 10.1893 11.984 10.0613 11.888C9.93325 11.792 9.83192 11.664 9.75725 11.504C9.69325 11.3333 9.66125 11.1147 9.66125 10.848V1.568C9.77858 1.54667 9.94925 1.52 10.1733 1.488C10.4079 1.44533 10.6426 1.424 10.8773 1.424C11.1119 1.424 11.3199 1.44 11.5013 1.472C11.6933 1.504 11.8533 1.568 11.9813 1.664C12.1093 1.76 12.2053 1.89333 12.2693 2.064C12.3439 2.224 12.3813 2.43733 12.3813 2.704V11.984ZM24.2128 9.616C24.0741 9.73333 23.8928 9.82933 23.6688 9.904C23.4554 9.968 23.2048 10 22.9168 10C22.5328 10 22.2128 9.952 21.9568 9.856C21.7114 9.76 21.5514 9.59467 21.4768 9.36C21.1781 8.42133 20.9328 7.664 20.7408 7.088C20.5488 6.50133 20.3994 5.98933 20.2928 5.552H20.2128C20.1808 6.18133 20.1541 6.75733 20.1328 7.28C20.1221 7.792 20.1114 8.29333 20.1008 8.784C20.1008 9.27467 20.0901 9.77067 20.0688 10.272C20.0581 10.7733 20.0368 11.328 20.0048 11.936C19.8661 11.9893 19.6848 12.032 19.4608 12.064C19.2368 12.1067 19.0128 12.128 18.7888 12.128C18.3194 12.128 17.9514 12.0533 17.6848 11.904C17.4288 11.7547 17.3008 11.4827 17.3008 11.088L17.7648 2.928C17.8501 2.78933 18.0368 2.64 18.3248 2.48C18.6128 2.32 19.0181 2.24 19.5408 2.24C20.1061 2.24 20.5488 2.33067 20.8688 2.512C21.1888 2.68267 21.4234 2.96533 21.5728 3.36C21.6688 3.616 21.7701 3.90933 21.8768 4.24C21.9941 4.57067 22.1061 4.912 22.2128 5.264C22.3301 5.616 22.4421 5.968 22.5488 6.32C22.6554 6.66133 22.7514 6.97067 22.8368 7.248H22.9168C23.1728 6.352 23.4288 5.488 23.6848 4.656C23.9408 3.81333 24.1754 3.10933 24.3888 2.544C24.5488 2.45867 24.7514 2.38933 24.9968 2.336C25.2528 2.272 25.5354 2.24 25.8448 2.24C26.3674 2.24 26.7941 2.32 27.1248 2.48C27.4554 2.62933 27.6474 2.848 27.7008 3.136C27.7434 3.34933 27.7861 3.68 27.8288 4.128C27.8821 4.56533 27.9354 5.06133 27.9888 5.616C28.0421 6.17067 28.0954 6.75733 28.1488 7.376C28.2021 7.99467 28.2501 8.592 28.2928 9.168C28.3461 9.73333 28.3888 10.256 28.4208 10.736C28.4528 11.2053 28.4741 11.568 28.4848 11.824C28.3034 11.9307 28.1114 12.0053 27.9088 12.048C27.7168 12.1013 27.4661 12.128 27.1568 12.128C26.7514 12.128 26.4101 12.0587 26.1328 11.92C25.8554 11.7813 25.7061 11.5093 25.6848 11.104C25.6208 9.94133 25.5781 8.896 25.5568 7.968C25.5461 7.04 25.5248 6.26133 25.4928 5.632H25.4128C25.3061 6.048 25.1514 6.57067 24.9488 7.2C24.7461 7.82933 24.5008 8.63467 24.2128 9.616ZM33.3788 10.272C33.5601 10.272 33.7574 10.256 33.9708 10.224C34.1948 10.1813 34.3601 10.128 34.4668 10.064V8.784L33.3148 8.88C33.0161 8.90133 32.7708 8.96533 32.5788 9.072C32.3868 9.17867 32.2908 9.33867 32.2908 9.552C32.2908 9.76533 32.3708 9.94133 32.5308 10.08C32.7014 10.208 32.9841 10.272 33.3788 10.272ZM33.2508 3.984C33.8268 3.984 34.3494 4.04267 34.8188 4.16C35.2988 4.27733 35.7041 4.45867 36.0348 4.704C36.3761 4.93867 36.6374 5.24267 36.8188 5.616C37.0001 5.97867 37.0908 6.41067 37.0908 6.912V10.496C37.0908 10.7733 37.0108 11.0027 36.8508 11.184C36.7014 11.3547 36.5201 11.504 36.3068 11.632C35.6134 12.048 34.6374 12.256 33.3788 12.256C32.8134 12.256 32.3014 12.2027 31.8428 12.096C31.3948 11.9893 31.0054 11.8293 30.6748 11.616C30.3548 11.4027 30.1041 11.1307 29.9228 10.8C29.7521 10.4693 29.6668 10.0853 29.6668 9.648C29.6668 8.912 29.8854 8.34667 30.3228 7.952C30.7601 7.55733 31.4374 7.312 32.3548 7.216L34.4508 6.992V6.88C34.4508 6.57067 34.3121 6.352 34.0348 6.224C33.7681 6.08533 33.3788 6.016 32.8668 6.016C32.4614 6.016 32.0668 6.05867 31.6828 6.144C31.2988 6.22933 30.9521 6.336 30.6428 6.464C30.5041 6.368 30.3868 6.224 30.2908 6.032C30.1948 5.82933 30.1468 5.62133 30.1468 5.408C30.1468 5.13067 30.2108 4.912 30.3388 4.752C30.4774 4.58133 30.6854 4.43733 30.9628 4.32C31.2721 4.20267 31.6348 4.11733 32.0508 4.064C32.4774 4.01067 32.8774 3.984 33.2508 3.984ZM41.4739 11.984C41.3672 12.016 41.1965 12.048 40.9619 12.08C40.7379 12.112 40.5032 12.128 40.2579 12.128C40.0232 12.128 39.8099 12.112 39.6179 12.08C39.4365 12.048 39.2819 11.984 39.1539 11.888C39.0259 11.792 38.9245 11.664 38.8499 11.504C38.7859 11.3333 38.7539 11.1147 38.7539 10.848V6.048C38.7539 5.80267 38.7965 5.59467 38.8819 5.424C38.9779 5.24267 39.1112 5.08267 39.2819 4.944C39.4525 4.80533 39.6605 4.68267 39.9059 4.576C40.1619 4.45867 40.4339 4.35733 40.7219 4.272C41.0099 4.18667 41.3085 4.12267 41.6179 4.08C41.9272 4.02667 42.2365 4 42.5459 4C43.0579 4 43.4632 4.10133 43.7619 4.304C44.0605 4.496 44.2099 4.816 44.2099 5.264C44.2099 5.41333 44.1885 5.56267 44.1459 5.712C44.1032 5.85067 44.0499 5.97867 43.9859 6.096C43.7619 6.096 43.5325 6.10667 43.2979 6.128C43.0632 6.14933 42.8339 6.18133 42.6099 6.224C42.3859 6.26667 42.1725 6.31467 41.9699 6.368C41.7779 6.41067 41.6125 6.464 41.4739 6.528V11.984ZM45.268 2.064C45.268 1.65867 45.4013 1.31733 45.668 1.04C45.9453 0.762666 46.308 0.624 46.756 0.624C47.204 0.624 47.5613 0.762666 47.828 1.04C48.1053 1.31733 48.244 1.65867 48.244 2.064C48.244 2.46933 48.1053 2.81067 47.828 3.088C47.5613 3.36533 47.204 3.504 46.756 3.504C46.308 3.504 45.9453 3.36533 45.668 3.088C45.4013 2.81067 45.268 2.46933 45.268 2.064ZM48.116 11.984C47.9987 12.0053 47.8227 12.032 47.588 12.064C47.364 12.1067 47.1347 12.128 46.9 12.128C46.6653 12.128 46.452 12.112 46.26 12.08C46.0787 12.048 45.924 11.984 45.796 11.888C45.668 11.792 45.5667 11.664 45.492 11.504C45.428 11.3333 45.396 11.1147 45.396 10.848V4.336C45.5133 4.31467 45.684 4.288 45.908 4.256C46.1427 4.21333 46.3773 4.192 46.612 4.192C46.8467 4.192 47.0547 4.208 47.236 4.24C47.428 4.272 47.588 4.336 47.716 4.432C47.844 4.528 47.94 4.66133 48.004 4.832C48.0787 4.992 48.116 5.20533 48.116 5.472V11.984ZM57.4348 6.128C57.1681 6.128 56.9121 6.17067 56.6668 6.256C56.4321 6.34133 56.2241 6.46933 56.0428 6.64C55.8721 6.8 55.7334 7.00267 55.6268 7.248C55.5201 7.49333 55.4668 7.78133 55.4668 8.112C55.4668 8.77333 55.6534 9.26933 56.0268 9.6C56.4108 9.93067 56.8748 10.096 57.4188 10.096C57.7388 10.096 58.0161 10.0587 58.2508 9.984C58.4854 9.90933 58.6934 9.82933 58.8748 9.744C59.0881 9.89333 59.2481 10.0587 59.3548 10.24C59.4614 10.4107 59.5148 10.6187 59.5148 10.864C59.5148 11.3013 59.3068 11.6427 58.8908 11.888C58.4748 12.1227 57.8988 12.24 57.1628 12.24C56.4908 12.24 55.8828 12.144 55.3388 11.952C54.7948 11.7493 54.3254 11.472 53.9308 11.12C53.5468 10.7573 53.2481 10.3253 53.0348 9.824C52.8214 9.32267 52.7148 8.768 52.7148 8.16C52.7148 7.456 52.8268 6.84267 53.0508 6.32C53.2854 5.78667 53.6001 5.34933 53.9948 5.008C54.3894 4.66667 54.8428 4.41067 55.3548 4.24C55.8774 4.06933 56.4268 3.984 57.0028 3.984C57.7708 3.984 58.3628 4.12267 58.7788 4.4C59.1948 4.67733 59.4028 5.03467 59.4028 5.472C59.4028 5.67467 59.3548 5.86667 59.2588 6.048C59.1628 6.21867 59.0508 6.368 58.9228 6.496C58.7414 6.41067 58.5228 6.33067 58.2668 6.256C58.0108 6.17067 57.7334 6.128 57.4348 6.128ZM64.2069 10.272C64.3882 10.272 64.5855 10.256 64.7989 10.224C65.0229 10.1813 65.1882 10.128 65.2949 10.064V8.784L64.1429 8.88C63.8442 8.90133 63.5989 8.96533 63.4069 9.072C63.2149 9.17867 63.1189 9.33867 63.1189 9.552C63.1189 9.76533 63.1989 9.94133 63.3589 10.08C63.5295 10.208 63.8122 10.272 64.2069 10.272ZM64.0789 3.984C64.6549 3.984 65.1775 4.04267 65.6469 4.16C66.1269 4.27733 66.5322 4.45867 66.8629 4.704C67.2042 4.93867 67.4655 5.24267 67.6469 5.616C67.8282 5.97867 67.9189 6.41067 67.9189 6.912V10.496C67.9189 10.7733 67.8389 11.0027 67.6789 11.184C67.5295 11.3547 67.3482 11.504 67.1349 11.632C66.4415 12.048 65.4655 12.256 64.2069 12.256C63.6415 12.256 63.1295 12.2027 62.6709 12.096C62.2229 11.9893 61.8335 11.8293 61.5029 11.616C61.1829 11.4027 60.9322 11.1307 60.7509 10.8C60.5802 10.4693 60.4949 10.0853 60.4949 9.648C60.4949 8.912 60.7135 8.34667 61.1509 7.952C61.5882 7.55733 62.2655 7.312 63.1829 7.216L65.2789 6.992V6.88C65.2789 6.57067 65.1402 6.352 64.8629 6.224C64.5962 6.08533 64.2069 6.016 63.6949 6.016C63.2895 6.016 62.8949 6.05867 62.5109 6.144C62.1269 6.22933 61.7802 6.336 61.4709 6.464C61.3322 6.368 61.2149 6.224 61.1189 6.032C61.0229 5.82933 60.9749 5.62133 60.9749 5.408C60.9749 5.13067 61.0389 4.912 61.1669 4.752C61.3055 4.58133 61.5135 4.43733 61.7909 4.32C62.1002 4.20267 62.4629 4.11733 62.8789 4.064C63.3055 4.01067 63.7055 3.984 64.0789 3.984ZM73.31 3.984C73.7473 3.984 74.174 4.048 74.59 4.176C75.0167 4.29333 75.3847 4.47467 75.694 4.72C76.014 4.50667 76.3713 4.33067 76.766 4.192C77.1713 4.05333 77.6567 3.984 78.222 3.984C78.6273 3.984 79.022 4.03733 79.406 4.144C79.8007 4.25067 80.1473 4.42133 80.446 4.656C80.7553 4.88 81.0007 5.184 81.182 5.568C81.3633 5.94133 81.454 6.4 81.454 6.944V11.984C81.3473 12.016 81.1767 12.048 80.942 12.08C80.718 12.112 80.4833 12.128 80.238 12.128C80.0033 12.128 79.79 12.112 79.598 12.08C79.4167 12.048 79.262 11.984 79.134 11.888C79.006 11.792 78.9047 11.664 78.83 11.504C78.766 11.3333 78.734 11.1147 78.734 10.848V7.024C78.734 6.704 78.6433 6.47467 78.462 6.336C78.2807 6.18667 78.0353 6.112 77.726 6.112C77.5767 6.112 77.4167 6.14933 77.246 6.224C77.0753 6.288 76.9473 6.35733 76.862 6.432C76.8727 6.47467 76.878 6.51733 76.878 6.56C76.878 6.592 76.878 6.624 76.878 6.656V11.984C76.7607 12.016 76.5847 12.048 76.35 12.08C76.126 12.112 75.8967 12.128 75.662 12.128C75.4273 12.128 75.214 12.112 75.022 12.08C74.8407 12.048 74.686 11.984 74.558 11.888C74.43 11.792 74.3287 11.664 74.254 11.504C74.19 11.3333 74.158 11.1147 74.158 10.848V7.024C74.158 6.704 74.0567 6.47467 73.854 6.336C73.662 6.18667 73.4273 6.112 73.15 6.112C72.958 6.112 72.7927 6.144 72.654 6.208C72.5153 6.26133 72.398 6.31467 72.302 6.368V11.984C72.1953 12.016 72.0247 12.048 71.79 12.08C71.566 12.112 71.3313 12.128 71.086 12.128C70.8513 12.128 70.638 12.112 70.446 12.08C70.2647 12.048 70.11 11.984 69.982 11.888C69.854 11.792 69.7527 11.664 69.678 11.504C69.614 11.3333 69.582 11.1147 69.582 10.848V6.016C69.582 5.728 69.6407 5.49867 69.758 5.328C69.886 5.15733 70.0567 4.99733 70.27 4.848C70.6327 4.592 71.0807 4.384 71.614 4.224C72.158 4.064 72.7233 3.984 73.31 3.984ZM86.6813 3.984C87.3213 3.984 87.9133 4.06933 88.4573 4.24C89.0119 4.4 89.4866 4.65067 89.8813 4.992C90.2759 5.33333 90.5853 5.76533 90.8093 6.288C91.0333 6.8 91.1453 7.41333 91.1453 8.128C91.1453 8.81067 91.0493 9.408 90.8573 9.92C90.6653 10.432 90.3933 10.864 90.0413 11.216C89.6893 11.5573 89.2626 11.8133 88.7613 11.984C88.2706 12.1547 87.7213 12.24 87.1133 12.24C86.6546 12.24 86.2279 12.1707 85.8333 12.032V14.688C85.7266 14.72 85.5559 14.752 85.3213 14.784C85.0866 14.8267 84.8466 14.848 84.6013 14.848C84.3666 14.848 84.1533 14.832 83.9613 14.8C83.7799 14.768 83.6253 14.704 83.4973 14.608C83.3693 14.512 83.2733 14.3787 83.2093 14.208C83.1453 14.048 83.1133 13.8347 83.1133 13.568V5.888C83.1133 5.6 83.1719 5.36533 83.2893 5.184C83.4173 5.00267 83.5879 4.83733 83.8013 4.688C84.1319 4.47467 84.5426 4.304 85.0333 4.176C85.5239 4.048 86.0733 3.984 86.6813 3.984ZM86.7133 10.096C87.8119 10.096 88.3613 9.44 88.3613 8.128C88.3613 7.44533 88.2226 6.93867 87.9453 6.608C87.6786 6.27733 87.2893 6.112 86.7773 6.112C86.5746 6.112 86.3933 6.13867 86.2333 6.192C86.0733 6.23467 85.9346 6.288 85.8173 6.352V9.872C85.9453 9.936 86.0839 9.98933 86.2333 10.032C86.3826 10.0747 86.5426 10.096 86.7133 10.096ZM92.4726 4.336C92.5793 4.304 92.7446 4.272 92.9686 4.24C93.2033 4.208 93.4433 4.192 93.6886 4.192C93.9233 4.192 94.1313 4.208 94.3126 4.24C94.5046 4.272 94.6646 4.336 94.7926 4.432C94.9206 4.528 95.0166 4.66133 95.0806 4.832C95.1553 4.992 95.1926 5.20533 95.1926 5.472V8.912C95.1926 9.34933 95.2993 9.664 95.5126 9.856C95.726 10.0373 96.0353 10.128 96.4406 10.128C96.686 10.128 96.8833 10.1067 97.0326 10.064C97.1926 10.0213 97.3153 9.97867 97.4006 9.936V4.336C97.5073 4.304 97.6726 4.272 97.8966 4.24C98.1313 4.208 98.3713 4.192 98.6166 4.192C98.8513 4.192 99.0593 4.208 99.2406 4.24C99.4326 4.272 99.5926 4.336 99.7206 4.432C99.8486 4.528 99.9446 4.66133 100.009 4.832C100.083 4.992 100.121 5.20533 100.121 5.472V10.336C100.121 10.8693 99.8966 11.2693 99.4486 11.536C99.0753 11.7707 98.6273 11.9467 98.1046 12.064C97.5926 12.192 97.0326 12.256 96.4246 12.256C95.8486 12.256 95.3153 12.192 94.8246 12.064C94.3446 11.936 93.9286 11.7387 93.5766 11.472C93.2246 11.2053 92.9526 10.864 92.7606 10.448C92.5686 10.0213 92.4726 9.50933 92.4726 8.912V4.336ZM108.345 9.68C108.345 10.4907 108.041 11.1253 107.433 11.584C106.825 12.0427 105.929 12.272 104.745 12.272C104.297 12.272 103.881 12.24 103.497 12.176C103.113 12.112 102.782 12.016 102.505 11.888C102.238 11.7493 102.025 11.5787 101.865 11.376C101.716 11.1733 101.641 10.9333 101.641 10.656C101.641 10.4 101.694 10.1867 101.801 10.016C101.908 9.83467 102.036 9.68533 102.185 9.568C102.494 9.73867 102.846 9.89333 103.241 10.032C103.646 10.16 104.11 10.224 104.633 10.224C104.964 10.224 105.214 10.176 105.385 10.08C105.566 9.984 105.657 9.856 105.657 9.696C105.657 9.54667 105.593 9.42933 105.465 9.344C105.337 9.25867 105.124 9.18933 104.825 9.136L104.345 9.04C103.417 8.85867 102.724 8.576 102.265 8.192C101.817 7.79733 101.593 7.23733 101.593 6.512C101.593 6.11733 101.678 5.76 101.849 5.44C102.02 5.12 102.26 4.85333 102.569 4.64C102.878 4.42667 103.246 4.26133 103.673 4.144C104.11 4.02667 104.59 3.968 105.113 3.968C105.508 3.968 105.876 4 106.217 4.064C106.569 4.11733 106.873 4.20267 107.129 4.32C107.385 4.43733 107.588 4.592 107.737 4.784C107.886 4.96533 107.961 5.184 107.961 5.44C107.961 5.68533 107.913 5.89867 107.817 6.08C107.732 6.25067 107.62 6.39467 107.481 6.512C107.396 6.45867 107.268 6.40533 107.097 6.352C106.926 6.288 106.74 6.23467 106.537 6.192C106.334 6.13867 106.126 6.096 105.913 6.064C105.71 6.032 105.524 6.016 105.353 6.016C105.001 6.016 104.729 6.05867 104.537 6.144C104.345 6.21867 104.249 6.34133 104.249 6.512C104.249 6.62933 104.302 6.72533 104.409 6.8C104.516 6.87467 104.718 6.944 105.017 7.008L105.513 7.12C106.537 7.35467 107.262 7.68 107.689 8.096C108.126 8.50133 108.345 9.02933 108.345 9.68ZM112.62 2.72C112.62 2.96533 112.615 3.32267 112.604 3.792C112.593 4.25067 112.572 4.752 112.54 5.296C112.508 5.82933 112.465 6.368 112.412 6.912C112.359 7.44533 112.295 7.90933 112.22 8.304C112.177 8.336 112.113 8.368 112.028 8.4C111.943 8.432 111.852 8.45867 111.756 8.48C111.66 8.50133 111.564 8.51733 111.468 8.528C111.372 8.53867 111.287 8.544 111.212 8.544C110.903 8.544 110.641 8.496 110.428 8.4C110.225 8.304 110.097 8.11733 110.044 7.84C109.991 7.59467 109.943 7.22133 109.9 6.72C109.868 6.21867 109.836 5.67467 109.804 5.088C109.772 4.50133 109.745 3.92 109.724 3.344C109.713 2.768 109.708 2.27733 109.708 1.872C109.921 1.75467 110.161 1.664 110.428 1.6C110.705 1.52533 110.977 1.488 111.244 1.488C111.681 1.488 112.017 1.58933 112.252 1.792C112.497 1.99467 112.62 2.304 112.62 2.72ZM109.676 10.784C109.676 10.3467 109.809 9.98933 110.076 9.712C110.353 9.424 110.732 9.28 111.212 9.28C111.692 9.28 112.065 9.424 112.332 9.712C112.609 9.98933 112.748 10.3467 112.748 10.784C112.748 11.2213 112.609 11.584 112.332 11.872C112.065 12.1493 111.692 12.288 111.212 12.288C110.732 12.288 110.353 12.1493 110.076 11.872C109.809 11.584 109.676 11.2213 109.676 10.784Z" fill="url(#paint0_radial_9_3)"/>
<defs>
<radialGradient id="paint0_radial_9_3" cx="0" cy="0" r="1" gradientUnits="userSpaceOnUse" gradientTransform="translate(-9.43304e-06 -2.83333) rotate(12.056) scale(104.344 39.3521)">
<stop stop-color="#5EBBFF"/>
<stop offset="1" stop-color="#207486"/>
</radialGradient>
</defs>
</svg>
